{"title":"Roue.Verveer.RIP.DVDRIP.XVID-MisterDeee","uid":6126766,"size":539386110,"categoryP":"video","categoryS":"tv_shows","magnet":"?xt=urn:btih:97e1b55abc0bd1f102ba00ee5e679bbc441e9bb3&amp;dn=Roue.Verveer.RIP.DVDRIP.XVID-MisterDeee&amp;tr=udp%3A%2F%2Ftracker.openbittorrent.com%3A80&amp;tr=udp%3A%2F%2Fopen.demonii.com%3A1337&amp;tr=udp%3A%2F%2Ftracker.coppersurfer.tk%3A6969&amp;tr=udp%3A%2F%2Fexodus.desync.com%3A6969","seeders":1,"leechers":0,"uploader":"MisterDeee","files":-1,"time":1295966362,"description":"RouÃƒÂ© is geboren in 1972 in Suriname. In 1998 bezoekt FreshWagon (met o.a.Najib Amhali en Eric van Sauers) Paramaribo om workshops te geven. Daar komen zij in aanraking met RouÃƒÂ©, die (na enige aarzeling) zijn kunsten vertoond in een door hen georganiseerde talentenjacht. En FreshWagon raakt diep onder de indruk van RouÃƒÂ©. In 1999 besluit RouÃƒÂ© de stap naar Nederland te wagen om daar een carriÃƒÂ¨re als Stand Up Comedian te beginnen. Hij wordt door zowel FreshWagon als door Comedytrain (zonder auditie te doen!) aangenomen. Vanaf die tijd gaat het snel. Zijn eerste show Uit het Niets presenteert hij op de Uitmarkt in Amsterdam in 2002 en in het seizoen 2003 &amp; 2004 komt hij met zijn eerste avondvullende programma Eigen Vermogen. Voor TV en DVD heeft hij van zijn shows Uit het Niets en Eigen Vermogen een spetterende compilatie gemaakt. Dit is R.I.P. geworden. RouÃƒÂ© In Panama.\n\nGeneral\nFormat                           : AVI\nFormat/Info                      : Audio Video Interleave\nFile size                        : 514 MiB\nDuration                         : 50mn 19s\nOverall bit rate                 : 1 429 Kbps\n\nVideo\nID                               : 0\nFormat                           : MPEG-4 Visual\nFormat profile                   : Simple@L3\nFormat settings, BVOP            : No\nFormat settings, QPel            : No\nFormat settings, GMC             : No warppoints\nFormat settings, Matrix          : Default (H.263)\nCodec ID                         : XVID\nCodec ID/Hint                    : XviD\nDuration                         : 50mn 19s\nBit rate                         : 1 199 Kbps\nWidth                            : 672 pixels\nHeight                           : 368 pixels\nDisplay aspect ratio             : 16:9\nFrame rate                       : 30.000 fps\nColor space                      : YUV\nChroma subsampling               : 4:2:0\nBit depth                        : 8 bits\nScan type                        : Progressive\nBits/(Pixel*Frame)               : 0.162\nStream size                      : 432 MiB (84%)\nWriting library                  : XviD 1.1.2 (UTC 2006-11-01)\n\nAudio\nID                               : 1\nFormat                           : AC-3\nFormat/Info                      : Audio Coding 3\nMode extension                   : CM (complete main)\nCodec ID                         : 2000\nDuration                         : 50mn 19s\nBit rate mode                    : Constant\nBit rate                         : 224 Kbps\nChannel(s)                       : 2 channels\nChannel positions                : Front: L R\nSampling rate                    : 48.0 KHz\nBit depth                        : 16 bits\nStream size                      : 80.6 MiB (16%)\nAlignment                        : Split accross interleaves\nInterleave, duration             : 500 ms (15.00 video frames)\nInterleave, preload duration     : 500 ms\n\nLeave your comment about Audio/Video/Movie","torrent":{"xt":"urn:btih:97e1b55abc0bd1f102ba00ee5e679bbc441e9bb3","amp;dn":"Roue.Verveer.RIP.DVDRIP.XVID-MisterDeee","amp;tr":["udp%3A%2F%2Ftracker.openbittorrent.com%3A80","udp%3A%2F%2Fopen.demonii.com%3A1337","udp%3A%2F%2Ftracker.coppersurfer.tk%3A6969","udp%3A%2F%2Fexodus.desync.com%3A6969"],"infoHash":"97e1b55abc0bd1f102ba00ee5e679bbc441e9bb3","infoHashBuffer":{"type":"Buffer","data":[151,225,181,90,188,11,209,241,2,186,0,238,94,103,155,188,68,30,155,179]},"announce":[],"urlList":[]}}